<svg width="26" height="26" viewBox="0 0 26 26" fill="none" xmlns="http://www.w3.org/2000/svg">
<path d="M21.3135 10.9271C21.3135 15.5062 12.8802 23.3646 12.8802 23.3646C12.8802 23.3646 4.44678 15.5062 4.44678 10.9271C4.44678 8.72803 5.33529 6.61901 6.91686 5.06403C8.49842 3.50904 10.6435 2.63545 12.8802 2.63545C15.1168 2.63545 17.2619 3.50904 18.8435 5.06403C20.425 6.61901 21.3135 8.72803 21.3135 10.9271Z" stroke="white" stroke-width="1.5"/>
<path d="M12.8801 11.9636C13.1597 11.9636 13.4278 11.8544 13.6255 11.66C13.8232 11.4656 13.9343 11.202 13.9343 10.9271C13.9343 10.6522 13.8232 10.3886 13.6255 10.1942C13.4278 9.99985 13.1597 9.89066 12.8801 9.89066C12.6005 9.89066 12.3324 9.99985 12.1347 10.1942C11.937 10.3886 11.8259 10.6522 11.8259 10.9271C11.8259 11.202 11.937 11.4656 12.1347 11.66C12.3324 11.8544 12.6005 11.9636 12.8801 11.9636Z" fill="white" stroke="white" stroke-width="1.5" stroke-linecap="round" stroke-linejoin="round"/>
</svg>
