<svg width="26" height="26" viewBox="0 0 26 26" fill="none" xmlns="http://www.w3.org/2000/svg">
<path d="M16.3692 4.70837V2.63545M16.3692 4.70837V6.78129M16.3692 4.70837H11.6254M3.71912 10.9271V20.2552C3.71912 20.805 3.94124 21.3323 4.33664 21.721C4.73203 22.1098 5.26829 22.3282 5.82746 22.3282H20.5859C21.145 22.3282 21.6813 22.1098 22.0767 21.721C22.4721 21.3323 22.6942 20.805 22.6942 20.2552V10.9271M3.71912 10.9271H22.6942M3.71912 10.9271V6.78129C3.71912 6.23151 3.94124 5.70426 4.33664 5.31551C4.73203 4.92676 5.26829 4.70837 5.82746 4.70837H7.93581M22.6942 10.9271V6.78129C22.6942 6.23151 22.4721 5.70426 22.0767 5.31551C21.6813 4.92676 21.145 4.70837 20.5859 4.70837H20.0588M7.93581 2.63545V6.78129" stroke="white" stroke-width="1.5" stroke-linecap="round" stroke-linejoin="round"/>
</svg>
