<svg width="35" height="35" viewBox="0 0 35 35" fill="none" xmlns="http://www.w3.org/2000/svg">
<path d="M3.09163 19.7254C4.17371 26.6977 10.2404 32.0775 17.5014 32.0775C25.5208 32.0775 32.0818 25.5165 32.0818 17.4971C32.0818 9.47773 25.5223 2.91669 17.5029 2.91669C12.6933 2.91669 8.46121 5.25148 5.83329 8.75002V2.91815L2.921 2.91669L2.91663 13.125H13.125V10.2084L8.45975 10.2069C10.5 7.58481 13.857 5.83335 17.5029 5.83335C23.9166 5.83335 29.1666 11.0834 29.1666 17.4971C29.1666 23.9109 23.9166 29.1623 17.5014 29.1623C11.846 29.1623 7.10058 25.0877 6.05496 19.7254H3.09163Z" fill="#005F15"/>
<path d="M16.0446 10.2068V17.9389L20.7127 24.2054L23.046 22.4598L18.9612 17.0625V10.2068H16.0446Z" fill="#005F15"/>
</svg>
