<svg width="46" height="40" viewBox="0 0 46 40" fill="none" xmlns="http://www.w3.org/2000/svg">
<path d="M44.3571 15.9318C44.7929 15.9318 45.2107 15.7238 45.5188 15.3534C45.8269 14.983 46 14.4807 46 13.9569V4.08216C46 3.03458 45.6538 2.02991 45.0376 1.28916C44.4214 0.548411 43.5857 0.132263 42.7143 0.132263H3.28571C2.41429 0.132263 1.57855 0.548411 0.962363 1.28916C0.346172 2.02991 0 3.03458 0 4.08216V13.9569C0 14.4807 0.173086 14.983 0.481182 15.3534C0.789277 15.7238 1.20714 15.9318 1.64286 15.9318C2.51428 15.9318 3.35002 16.348 3.96621 17.0887C4.5824 17.8295 4.92857 18.8342 4.92857 19.8817C4.92857 20.9293 4.5824 21.934 3.96621 22.6747C3.35002 23.4155 2.51428 23.8316 1.64286 23.8316C1.20714 23.8316 0.789277 24.0397 0.481182 24.4101C0.173086 24.7805 0 25.2828 0 25.8066V35.6813C0 36.7289 0.346172 37.7336 0.962363 38.4743C1.57855 39.2151 2.41429 39.6312 3.28571 39.6312H42.7143C43.5857 39.6312 44.4214 39.2151 45.0376 38.4743C45.6538 37.7336 46 36.7289 46 35.6813V25.8066C46 25.2828 45.8269 24.7805 45.5188 24.4101C45.2107 24.0397 44.7929 23.8316 44.3571 23.8316C43.4857 23.8316 42.65 23.4155 42.0338 22.6747C41.4176 21.934 41.0714 20.9293 41.0714 19.8817C41.0714 18.8342 41.4176 17.8295 42.0338 17.0887C42.65 16.348 43.4857 15.9318 44.3571 15.9318ZM42.7143 27.5248V35.6813H31.2143V29.7565H27.9286V35.6813H3.28571V27.5248C4.69199 27.0829 5.93673 26.0931 6.82512 24.7101C7.71351 23.3271 8.19542 21.6291 8.19542 19.8817C8.19542 18.1344 7.71351 16.4364 6.82512 15.0534C5.93673 13.6704 4.69199 12.6805 3.28571 12.2387V4.08216H27.9286V10.007H31.2143V4.08216H42.7143V12.2387C41.308 12.6805 40.0633 13.6704 39.1749 15.0534C38.2865 16.4364 37.8046 18.1344 37.8046 19.8817C37.8046 21.6291 38.2865 23.3271 39.1749 24.7101C40.0633 26.0931 41.308 27.0829 42.7143 27.5248Z" fill="#32DF8F"/>
</svg>
